G04 #@! TF.GenerationSoftware,KiCad,Pcbnew,(6.0.1)*
G04 #@! TF.CreationDate,2022-09-21T11:39:00+02:00*
G04 #@! TF.ProjectId,LoRa-E5_BME680,4c6f5261-2d45-4355-9f42-4d453638302e,rev?*
G04 #@! TF.SameCoordinates,Original*
G04 #@! TF.FileFunction,Legend,Top*
G04 #@! TF.FilePolarity,Positive*
%FSLAX46Y46*%
G04 Gerber Fmt 4.6, Leading zero omitted, Abs format (unit mm)*
G04 Created by KiCad (PCBNEW (6.0.1)) date 2022-09-21 11:39:00*
%MOMM*%
%LPD*%
G01*
G04 APERTURE LIST*
%ADD10C,0.125000*%
%ADD11C,0.150000*%
%ADD12C,0.120000*%
G04 APERTURE END LIST*
D10*
X90576047Y-101417666D02*
X90576047Y-101015285D01*
X90823666Y-101231952D01*
X90823666Y-101139095D01*
X90854619Y-101077190D01*
X90885571Y-101046238D01*
X90947476Y-101015285D01*
X91102238Y-101015285D01*
X91164142Y-101046238D01*
X91195095Y-101077190D01*
X91226047Y-101139095D01*
X91226047Y-101324809D01*
X91195095Y-101386714D01*
X91164142Y-101417666D01*
X91164142Y-100736714D02*
X91195095Y-100705761D01*
X91226047Y-100736714D01*
X91195095Y-100767666D01*
X91164142Y-100736714D01*
X91226047Y-100736714D01*
X90576047Y-100489095D02*
X90576047Y-100086714D01*
X90823666Y-100303380D01*
X90823666Y-100210523D01*
X90854619Y-100148619D01*
X90885571Y-100117666D01*
X90947476Y-100086714D01*
X91102238Y-100086714D01*
X91164142Y-100117666D01*
X91195095Y-100148619D01*
X91226047Y-100210523D01*
X91226047Y-100396238D01*
X91195095Y-100458142D01*
X91164142Y-100489095D01*
X91442714Y-99653380D02*
X90514142Y-99653380D01*
X91442714Y-98043857D02*
X90514142Y-98043857D01*
X91226047Y-97208142D02*
X90916523Y-97424809D01*
X91226047Y-97579571D02*
X90576047Y-97579571D01*
X90576047Y-97331952D01*
X90607000Y-97270047D01*
X90637952Y-97239095D01*
X90699857Y-97208142D01*
X90792714Y-97208142D01*
X90854619Y-97239095D01*
X90885571Y-97270047D01*
X90916523Y-97331952D01*
X90916523Y-97579571D01*
X91195095Y-96960523D02*
X91226047Y-96867666D01*
X91226047Y-96712904D01*
X91195095Y-96651000D01*
X91164142Y-96620047D01*
X91102238Y-96589095D01*
X91040333Y-96589095D01*
X90978428Y-96620047D01*
X90947476Y-96651000D01*
X90916523Y-96712904D01*
X90885571Y-96836714D01*
X90854619Y-96898619D01*
X90823666Y-96929571D01*
X90761761Y-96960523D01*
X90699857Y-96960523D01*
X90637952Y-96929571D01*
X90607000Y-96898619D01*
X90576047Y-96836714D01*
X90576047Y-96681952D01*
X90607000Y-96589095D01*
X90576047Y-96403380D02*
X90576047Y-96031952D01*
X91226047Y-96217666D02*
X90576047Y-96217666D01*
X91442714Y-95660523D02*
X90514142Y-95660523D01*
X91195095Y-95227190D02*
X91226047Y-95134333D01*
X91226047Y-94979571D01*
X91195095Y-94917666D01*
X91164142Y-94886714D01*
X91102238Y-94855761D01*
X91040333Y-94855761D01*
X90978428Y-94886714D01*
X90947476Y-94917666D01*
X90916523Y-94979571D01*
X90885571Y-95103380D01*
X90854619Y-95165285D01*
X90823666Y-95196238D01*
X90761761Y-95227190D01*
X90699857Y-95227190D01*
X90637952Y-95196238D01*
X90607000Y-95165285D01*
X90576047Y-95103380D01*
X90576047Y-94948619D01*
X90607000Y-94855761D01*
X90576047Y-94639095D02*
X91226047Y-94484333D01*
X90761761Y-94360523D01*
X91226047Y-94236714D01*
X90576047Y-94081952D01*
X91164142Y-93462904D02*
X91195095Y-93493857D01*
X91226047Y-93586714D01*
X91226047Y-93648619D01*
X91195095Y-93741476D01*
X91133190Y-93803380D01*
X91071285Y-93834333D01*
X90947476Y-93865285D01*
X90854619Y-93865285D01*
X90730809Y-93834333D01*
X90668904Y-93803380D01*
X90607000Y-93741476D01*
X90576047Y-93648619D01*
X90576047Y-93586714D01*
X90607000Y-93493857D01*
X90637952Y-93462904D01*
X91226047Y-92874809D02*
X91226047Y-93184333D01*
X90576047Y-93184333D01*
X91226047Y-92658142D02*
X90576047Y-92658142D01*
X91226047Y-92286714D02*
X90854619Y-92565285D01*
X90576047Y-92286714D02*
X90947476Y-92658142D01*
X91442714Y-91853380D02*
X90514142Y-91853380D01*
X91195095Y-91420047D02*
X91226047Y-91327190D01*
X91226047Y-91172428D01*
X91195095Y-91110523D01*
X91164142Y-91079571D01*
X91102238Y-91048619D01*
X91040333Y-91048619D01*
X90978428Y-91079571D01*
X90947476Y-91110523D01*
X90916523Y-91172428D01*
X90885571Y-91296238D01*
X90854619Y-91358142D01*
X90823666Y-91389095D01*
X90761761Y-91420047D01*
X90699857Y-91420047D01*
X90637952Y-91389095D01*
X90607000Y-91358142D01*
X90576047Y-91296238D01*
X90576047Y-91141476D01*
X90607000Y-91048619D01*
X90576047Y-90831952D02*
X91226047Y-90677190D01*
X90761761Y-90553380D01*
X91226047Y-90429571D01*
X90576047Y-90274809D01*
X91226047Y-90027190D02*
X90576047Y-90027190D01*
X90576047Y-89872428D01*
X90607000Y-89779571D01*
X90668904Y-89717666D01*
X90730809Y-89686714D01*
X90854619Y-89655761D01*
X90947476Y-89655761D01*
X91071285Y-89686714D01*
X91133190Y-89717666D01*
X91195095Y-89779571D01*
X91226047Y-89872428D01*
X91226047Y-90027190D01*
X91226047Y-89377190D02*
X90576047Y-89377190D01*
X90576047Y-88943857D02*
X90576047Y-88820047D01*
X90607000Y-88758142D01*
X90668904Y-88696238D01*
X90792714Y-88665285D01*
X91009380Y-88665285D01*
X91133190Y-88696238D01*
X91195095Y-88758142D01*
X91226047Y-88820047D01*
X91226047Y-88943857D01*
X91195095Y-89005761D01*
X91133190Y-89067666D01*
X91009380Y-89098619D01*
X90792714Y-89098619D01*
X90668904Y-89067666D01*
X90607000Y-89005761D01*
X90576047Y-88943857D01*
X91442714Y-88231952D02*
X90514142Y-88231952D01*
X90607000Y-87427190D02*
X90576047Y-87489095D01*
X90576047Y-87581952D01*
X90607000Y-87674809D01*
X90668904Y-87736714D01*
X90730809Y-87767666D01*
X90854619Y-87798619D01*
X90947476Y-87798619D01*
X91071285Y-87767666D01*
X91133190Y-87736714D01*
X91195095Y-87674809D01*
X91226047Y-87581952D01*
X91226047Y-87520047D01*
X91195095Y-87427190D01*
X91164142Y-87396238D01*
X90947476Y-87396238D01*
X90947476Y-87520047D01*
X91226047Y-87117666D02*
X90576047Y-87117666D01*
X91226047Y-86746238D01*
X90576047Y-86746238D01*
X91226047Y-86436714D02*
X90576047Y-86436714D01*
X90576047Y-86281952D01*
X90607000Y-86189095D01*
X90668904Y-86127190D01*
X90730809Y-86096238D01*
X90854619Y-86065285D01*
X90947476Y-86065285D01*
X91071285Y-86096238D01*
X91133190Y-86127190D01*
X91195095Y-86189095D01*
X91226047Y-86281952D01*
X91226047Y-86436714D01*
X129326047Y-99624333D02*
X129016523Y-99841000D01*
X129326047Y-99995761D02*
X128676047Y-99995761D01*
X128676047Y-99748142D01*
X128707000Y-99686238D01*
X128737952Y-99655285D01*
X128799857Y-99624333D01*
X128892714Y-99624333D01*
X128954619Y-99655285D01*
X128985571Y-99686238D01*
X129016523Y-99748142D01*
X129016523Y-99995761D01*
X128676047Y-99407666D02*
X129326047Y-98974333D01*
X128676047Y-98974333D02*
X129326047Y-99407666D01*
X129542714Y-98571952D02*
X128614142Y-98571952D01*
X128676047Y-98200523D02*
X128676047Y-97829095D01*
X129326047Y-98014809D02*
X128676047Y-98014809D01*
X128676047Y-97674333D02*
X129326047Y-97241000D01*
X128676047Y-97241000D02*
X129326047Y-97674333D01*
X129542714Y-96838619D02*
X128614142Y-96838619D01*
X128676047Y-96436238D02*
X128676047Y-96033857D01*
X128923666Y-96250523D01*
X128923666Y-96157666D01*
X128954619Y-96095761D01*
X128985571Y-96064809D01*
X129047476Y-96033857D01*
X129202238Y-96033857D01*
X129264142Y-96064809D01*
X129295095Y-96095761D01*
X129326047Y-96157666D01*
X129326047Y-96343380D01*
X129295095Y-96405285D01*
X129264142Y-96436238D01*
X129264142Y-95755285D02*
X129295095Y-95724333D01*
X129326047Y-95755285D01*
X129295095Y-95786238D01*
X129264142Y-95755285D01*
X129326047Y-95755285D01*
X128676047Y-95507666D02*
X128676047Y-95105285D01*
X128923666Y-95321952D01*
X128923666Y-95229095D01*
X128954619Y-95167190D01*
X128985571Y-95136238D01*
X129047476Y-95105285D01*
X129202238Y-95105285D01*
X129264142Y-95136238D01*
X129295095Y-95167190D01*
X129326047Y-95229095D01*
X129326047Y-95414809D01*
X129295095Y-95476714D01*
X129264142Y-95507666D01*
X129542714Y-94671952D02*
X128614142Y-94671952D01*
X128707000Y-93867190D02*
X128676047Y-93929095D01*
X128676047Y-94021952D01*
X128707000Y-94114809D01*
X128768904Y-94176714D01*
X128830809Y-94207666D01*
X128954619Y-94238619D01*
X129047476Y-94238619D01*
X129171285Y-94207666D01*
X129233190Y-94176714D01*
X129295095Y-94114809D01*
X129326047Y-94021952D01*
X129326047Y-93960047D01*
X129295095Y-93867190D01*
X129264142Y-93836238D01*
X129047476Y-93836238D01*
X129047476Y-93960047D01*
X129326047Y-93557666D02*
X128676047Y-93557666D01*
X129326047Y-93186238D01*
X128676047Y-93186238D01*
X129326047Y-92876714D02*
X128676047Y-92876714D01*
X128676047Y-92721952D01*
X128707000Y-92629095D01*
X128768904Y-92567190D01*
X128830809Y-92536238D01*
X128954619Y-92505285D01*
X129047476Y-92505285D01*
X129171285Y-92536238D01*
X129233190Y-92567190D01*
X129295095Y-92629095D01*
X129326047Y-92721952D01*
X129326047Y-92876714D01*
D11*
X112275333Y-99133142D02*
X112227714Y-99180761D01*
X112084857Y-99228380D01*
X111989619Y-99228380D01*
X111846761Y-99180761D01*
X111751523Y-99085523D01*
X111703904Y-98990285D01*
X111656285Y-98799809D01*
X111656285Y-98656952D01*
X111703904Y-98466476D01*
X111751523Y-98371238D01*
X111846761Y-98276000D01*
X111989619Y-98228380D01*
X112084857Y-98228380D01*
X112227714Y-98276000D01*
X112275333Y-98323619D01*
X112608666Y-98228380D02*
X113227714Y-98228380D01*
X112894380Y-98609333D01*
X113037238Y-98609333D01*
X113132476Y-98656952D01*
X113180095Y-98704571D01*
X113227714Y-98799809D01*
X113227714Y-99037904D01*
X113180095Y-99133142D01*
X113132476Y-99180761D01*
X113037238Y-99228380D01*
X112751523Y-99228380D01*
X112656285Y-99180761D01*
X112608666Y-99133142D01*
X92237666Y-93694380D02*
X92237666Y-94408666D01*
X92190047Y-94551523D01*
X92094809Y-94646761D01*
X91951952Y-94694380D01*
X91856714Y-94694380D01*
X93237666Y-94694380D02*
X92666238Y-94694380D01*
X92951952Y-94694380D02*
X92951952Y-93694380D01*
X92856714Y-93837238D01*
X92761476Y-93932476D01*
X92666238Y-93980095D01*
X125022333Y-110395880D02*
X124689000Y-109919690D01*
X124450904Y-110395880D02*
X124450904Y-109395880D01*
X124831857Y-109395880D01*
X124927095Y-109443500D01*
X124974714Y-109491119D01*
X125022333Y-109586357D01*
X125022333Y-109729214D01*
X124974714Y-109824452D01*
X124927095Y-109872071D01*
X124831857Y-109919690D01*
X124450904Y-109919690D01*
X125403285Y-109491119D02*
X125450904Y-109443500D01*
X125546142Y-109395880D01*
X125784238Y-109395880D01*
X125879476Y-109443500D01*
X125927095Y-109491119D01*
X125974714Y-109586357D01*
X125974714Y-109681595D01*
X125927095Y-109824452D01*
X125355666Y-110395880D01*
X125974714Y-110395880D01*
X110275333Y-99133142D02*
X110227714Y-99180761D01*
X110084857Y-99228380D01*
X109989619Y-99228380D01*
X109846761Y-99180761D01*
X109751523Y-99085523D01*
X109703904Y-98990285D01*
X109656285Y-98799809D01*
X109656285Y-98656952D01*
X109703904Y-98466476D01*
X109751523Y-98371238D01*
X109846761Y-98276000D01*
X109989619Y-98228380D01*
X110084857Y-98228380D01*
X110227714Y-98276000D01*
X110275333Y-98323619D01*
X111227714Y-99228380D02*
X110656285Y-99228380D01*
X110942000Y-99228380D02*
X110942000Y-98228380D01*
X110846761Y-98371238D01*
X110751523Y-98466476D01*
X110656285Y-98514095D01*
X128950333Y-84392666D02*
X129426523Y-84392666D01*
X128855095Y-84678380D02*
X129188428Y-83678380D01*
X129521761Y-84678380D01*
X129855095Y-84154571D02*
X130188428Y-84154571D01*
X130331285Y-84678380D02*
X129855095Y-84678380D01*
X129855095Y-83678380D01*
X130331285Y-83678380D01*
X131283666Y-84678380D02*
X130712238Y-84678380D01*
X130997952Y-84678380D02*
X130997952Y-83678380D01*
X130902714Y-83821238D01*
X130807476Y-83916476D01*
X130712238Y-83964095D01*
X127680095Y-109490880D02*
X127680095Y-110300404D01*
X127727714Y-110395642D01*
X127775333Y-110443261D01*
X127870571Y-110490880D01*
X128061047Y-110490880D01*
X128156285Y-110443261D01*
X128203904Y-110395642D01*
X128251523Y-110300404D01*
X128251523Y-109490880D01*
X128680095Y-109586119D02*
X128727714Y-109538500D01*
X128822952Y-109490880D01*
X129061047Y-109490880D01*
X129156285Y-109538500D01*
X129203904Y-109586119D01*
X129251523Y-109681357D01*
X129251523Y-109776595D01*
X129203904Y-109919452D01*
X128632476Y-110490880D01*
X129251523Y-110490880D01*
X115852380Y-87711904D02*
X116661904Y-87711904D01*
X116757142Y-87664285D01*
X116804761Y-87616666D01*
X116852380Y-87521428D01*
X116852380Y-87330952D01*
X116804761Y-87235714D01*
X116757142Y-87188095D01*
X116661904Y-87140476D01*
X115852380Y-87140476D01*
X116852380Y-86140476D02*
X116852380Y-86711904D01*
X116852380Y-86426190D02*
X115852380Y-86426190D01*
X115995238Y-86521428D01*
X116090476Y-86616666D01*
X116138095Y-86711904D01*
X123047333Y-110395880D02*
X122714000Y-109919690D01*
X122475904Y-110395880D02*
X122475904Y-109395880D01*
X122856857Y-109395880D01*
X122952095Y-109443500D01*
X122999714Y-109491119D01*
X123047333Y-109586357D01*
X123047333Y-109729214D01*
X122999714Y-109824452D01*
X122952095Y-109872071D01*
X122856857Y-109919690D01*
X122475904Y-109919690D01*
X123999714Y-110395880D02*
X123428285Y-110395880D01*
X123714000Y-110395880D02*
X123714000Y-109395880D01*
X123618761Y-109538738D01*
X123523523Y-109633976D01*
X123428285Y-109681595D01*
X126672333Y-102475642D02*
X126624714Y-102523261D01*
X126481857Y-102570880D01*
X126386619Y-102570880D01*
X126243761Y-102523261D01*
X126148523Y-102428023D01*
X126100904Y-102332785D01*
X126053285Y-102142309D01*
X126053285Y-101999452D01*
X126100904Y-101808976D01*
X126148523Y-101713738D01*
X126243761Y-101618500D01*
X126386619Y-101570880D01*
X126481857Y-101570880D01*
X126624714Y-101618500D01*
X126672333Y-101666119D01*
X127577095Y-101570880D02*
X127100904Y-101570880D01*
X127053285Y-102047071D01*
X127100904Y-101999452D01*
X127196142Y-101951833D01*
X127434238Y-101951833D01*
X127529476Y-101999452D01*
X127577095Y-102047071D01*
X127624714Y-102142309D01*
X127624714Y-102380404D01*
X127577095Y-102475642D01*
X127529476Y-102523261D01*
X127434238Y-102570880D01*
X127196142Y-102570880D01*
X127100904Y-102523261D01*
X127053285Y-102475642D01*
X99250666Y-83780761D02*
X99393523Y-83828380D01*
X99631619Y-83828380D01*
X99726857Y-83780761D01*
X99774476Y-83733142D01*
X99822095Y-83637904D01*
X99822095Y-83542666D01*
X99774476Y-83447428D01*
X99726857Y-83399809D01*
X99631619Y-83352190D01*
X99441142Y-83304571D01*
X99345904Y-83256952D01*
X99298285Y-83209333D01*
X99250666Y-83114095D01*
X99250666Y-83018857D01*
X99298285Y-82923619D01*
X99345904Y-82876000D01*
X99441142Y-82828380D01*
X99679238Y-82828380D01*
X99822095Y-82876000D01*
X100155428Y-82828380D02*
X100393523Y-83828380D01*
X100584000Y-83114095D01*
X100774476Y-83828380D01*
X101012571Y-82828380D01*
X101917333Y-83828380D02*
X101345904Y-83828380D01*
X101631619Y-83828380D02*
X101631619Y-82828380D01*
X101536380Y-82971238D01*
X101441142Y-83066476D01*
X101345904Y-83114095D01*
X124697333Y-102525642D02*
X124649714Y-102573261D01*
X124506857Y-102620880D01*
X124411619Y-102620880D01*
X124268761Y-102573261D01*
X124173523Y-102478023D01*
X124125904Y-102382785D01*
X124078285Y-102192309D01*
X124078285Y-102049452D01*
X124125904Y-101858976D01*
X124173523Y-101763738D01*
X124268761Y-101668500D01*
X124411619Y-101620880D01*
X124506857Y-101620880D01*
X124649714Y-101668500D01*
X124697333Y-101716119D01*
X125554476Y-101954214D02*
X125554476Y-102620880D01*
X125316380Y-101573261D02*
X125078285Y-102287547D01*
X125697333Y-102287547D01*
X131783666Y-101633380D02*
X131783666Y-102347666D01*
X131736047Y-102490523D01*
X131640809Y-102585761D01*
X131497952Y-102633380D01*
X131402714Y-102633380D01*
X132212238Y-101728619D02*
X132259857Y-101681000D01*
X132355095Y-101633380D01*
X132593190Y-101633380D01*
X132688428Y-101681000D01*
X132736047Y-101728619D01*
X132783666Y-101823857D01*
X132783666Y-101919095D01*
X132736047Y-102061952D01*
X132164619Y-102633380D01*
X132783666Y-102633380D01*
D12*
X111732000Y-96010420D02*
X111732000Y-96291580D01*
X112752000Y-96010420D02*
X112752000Y-96291580D01*
X86512000Y-88946000D02*
X86512000Y-101706000D01*
X86512000Y-88946000D02*
X89172000Y-88946000D01*
X86512000Y-86346000D02*
X87842000Y-86346000D01*
X86512000Y-101706000D02*
X89172000Y-101706000D01*
X86512000Y-87676000D02*
X86512000Y-86346000D01*
X89172000Y-88946000D02*
X89172000Y-101706000D01*
X125339500Y-107580758D02*
X125339500Y-107106242D01*
X124294500Y-107580758D02*
X124294500Y-107106242D01*
X111102000Y-95588164D02*
X111102000Y-95803836D01*
X110382000Y-95588164D02*
X110382000Y-95803836D01*
X130052000Y-107588500D02*
X130052000Y-106088500D01*
X126832000Y-109088500D02*
X126832000Y-106088500D01*
D11*
X109900000Y-80950000D02*
X121900000Y-80950000D01*
X109900000Y-92950000D02*
X109900000Y-80950000D01*
X121900000Y-92950000D02*
X109900000Y-92950000D01*
X121900000Y-80950000D02*
X121900000Y-92950000D01*
X111102353Y-93930000D02*
G75*
G03*
X111102353Y-93930000I-362353J0D01*
G01*
D12*
X123764500Y-107605758D02*
X123764500Y-107131242D01*
X122719500Y-107605758D02*
X122719500Y-107131242D01*
X126481000Y-103955664D02*
X126481000Y-104171336D01*
X125761000Y-103955664D02*
X125761000Y-104171336D01*
X103184000Y-84134000D02*
X97984000Y-84134000D01*
X103184000Y-78934000D02*
X97984000Y-78934000D01*
X101584000Y-81534000D02*
G75*
G03*
X101584000Y-81534000I-1000000J0D01*
G01*
X125211000Y-103980664D02*
X125211000Y-104196336D01*
X124491000Y-103980664D02*
X124491000Y-104196336D01*
X133447000Y-101181000D02*
X132117000Y-101181000D01*
X133447000Y-98581000D02*
X130787000Y-98581000D01*
X133447000Y-99851000D02*
X133447000Y-101181000D01*
X133447000Y-98581000D02*
X133447000Y-90901000D01*
X130787000Y-98581000D02*
X130787000Y-90901000D01*
X133447000Y-90901000D02*
X130787000Y-90901000D01*
M02*
