G04 #@! TF.GenerationSoftware,KiCad,Pcbnew,(6.0.1)*
G04 #@! TF.CreationDate,2022-09-21T11:39:00+02:00*
G04 #@! TF.ProjectId,LoRa-E5_BME680,4c6f5261-2d45-4355-9f42-4d453638302e,rev?*
G04 #@! TF.SameCoordinates,Original*
G04 #@! TF.FileFunction,Copper,L2,Bot*
G04 #@! TF.FilePolarity,Positive*
%FSLAX46Y46*%
G04 Gerber Fmt 4.6, Leading zero omitted, Abs format (unit mm)*
G04 Created by KiCad (PCBNEW (6.0.1)) date 2022-09-21 11:39:00*
%MOMM*%
%LPD*%
G01*
G04 APERTURE LIST*
G04 #@! TA.AperFunction,ComponentPad*
%ADD10R,1.700000X1.700000*%
G04 #@! TD*
G04 #@! TA.AperFunction,ComponentPad*
%ADD11O,1.700000X1.700000*%
G04 #@! TD*
G04 #@! TA.AperFunction,SMDPad,CuDef*
%ADD12R,6.000000X5.500000*%
G04 #@! TD*
G04 #@! TA.AperFunction,SMDPad,CuDef*
%ADD13C,20.000000*%
G04 #@! TD*
G04 #@! TA.AperFunction,ViaPad*
%ADD14C,0.800000*%
G04 #@! TD*
G04 #@! TA.AperFunction,Conductor*
%ADD15C,0.250000*%
G04 #@! TD*
G04 APERTURE END LIST*
D10*
X87842000Y-87676000D03*
D11*
X87842000Y-90216000D03*
X87842000Y-92756000D03*
X87842000Y-95296000D03*
X87842000Y-97836000D03*
X87842000Y-100376000D03*
D10*
X132117000Y-99851000D03*
D11*
X132117000Y-97311000D03*
X132117000Y-94771000D03*
X132117000Y-92231000D03*
D12*
X123892000Y-95276000D03*
X93292000Y-95276000D03*
D13*
X108592000Y-95276000D03*
D14*
X123842000Y-95276000D03*
X93342000Y-95276000D03*
X124842000Y-112176000D03*
X87842000Y-112176000D03*
X135042000Y-102176000D03*
X86042000Y-109576000D03*
X118842000Y-112176000D03*
X133842000Y-89526000D03*
X135042000Y-109176000D03*
X116842000Y-112176000D03*
X135042000Y-94176000D03*
X91442000Y-78176000D03*
X122842000Y-112176000D03*
X86042000Y-110576000D03*
X117842000Y-112176000D03*
X98442000Y-78176000D03*
X112842000Y-112176000D03*
X113342000Y-93276000D03*
X130842000Y-89526000D03*
X86042000Y-93376000D03*
X99842000Y-108176000D03*
X135042000Y-104176000D03*
X93442000Y-78176000D03*
X129842000Y-112176000D03*
X135042000Y-99176000D03*
X128842000Y-89526000D03*
X111442000Y-78176000D03*
X86042000Y-105576000D03*
X122642000Y-81076000D03*
X135042000Y-103176000D03*
X124442000Y-85576000D03*
X133842000Y-112176000D03*
X86042000Y-107576000D03*
X86042000Y-79176000D03*
X114842000Y-112176000D03*
X121842000Y-112176000D03*
X93842000Y-112176000D03*
X135042000Y-110176000D03*
X86042000Y-86176000D03*
X105442000Y-78176000D03*
X117442000Y-78176000D03*
X90842000Y-82176000D03*
X92442000Y-78176000D03*
X96842000Y-112176000D03*
X122442000Y-78176000D03*
X86042000Y-98376000D03*
X124842000Y-89526000D03*
X135042000Y-92176000D03*
X86042000Y-91376000D03*
X124442000Y-78176000D03*
X113842000Y-112176000D03*
X124442000Y-86576000D03*
X135042000Y-91176000D03*
X125842000Y-112176000D03*
X135042000Y-96176000D03*
X89842000Y-112176000D03*
X106842000Y-112176000D03*
X95842000Y-112176000D03*
X89442000Y-78176000D03*
X86042000Y-100376000D03*
X113442000Y-78176000D03*
X112442000Y-78176000D03*
X135042000Y-100176000D03*
X135042000Y-112176000D03*
X86042000Y-99376000D03*
X135042000Y-108176000D03*
X86042000Y-108576000D03*
X135042000Y-97176000D03*
X131842000Y-112176000D03*
X103842000Y-112176000D03*
X91242000Y-107976000D03*
X124442000Y-87576000D03*
X124442000Y-88576000D03*
X86042000Y-97376000D03*
X132842000Y-112176000D03*
X91842000Y-112176000D03*
X135042000Y-101176000D03*
X123842000Y-112176000D03*
X104842000Y-112176000D03*
X102842000Y-112176000D03*
X114442000Y-78176000D03*
X115842000Y-112176000D03*
X86042000Y-80176000D03*
X86042000Y-106576000D03*
X118442000Y-78176000D03*
X86042000Y-92376000D03*
X109442000Y-78176000D03*
X113442000Y-88876000D03*
X104442000Y-90976000D03*
X123642000Y-81076000D03*
X103442000Y-78176000D03*
X126842000Y-89526000D03*
X86042000Y-78176000D03*
X131842000Y-89526000D03*
X123442000Y-78176000D03*
X98842000Y-112176000D03*
X115442000Y-78176000D03*
X104442000Y-78176000D03*
X86042000Y-95376000D03*
X127842000Y-112176000D03*
X86042000Y-104576000D03*
X86042000Y-88176000D03*
X97842000Y-112176000D03*
X88842000Y-112176000D03*
X110842000Y-112176000D03*
X95442000Y-108176000D03*
X108842000Y-112176000D03*
X128842000Y-112176000D03*
X97442000Y-78176000D03*
X101842000Y-112176000D03*
X86042000Y-90376000D03*
X100842000Y-112176000D03*
X129842000Y-89526000D03*
X124442000Y-84576000D03*
X94842000Y-112176000D03*
X94442000Y-78176000D03*
X111842000Y-112176000D03*
X130842000Y-112176000D03*
X86042000Y-82176000D03*
X87242000Y-78176000D03*
X121742000Y-81076000D03*
X101442000Y-78176000D03*
X108442000Y-78176000D03*
X86042000Y-87176000D03*
X95442000Y-105376000D03*
X119442000Y-78176000D03*
X135042000Y-98176000D03*
X127842000Y-89526000D03*
X99442000Y-78176000D03*
X100442000Y-78176000D03*
X91242000Y-105376000D03*
X90842000Y-112176000D03*
X86042000Y-84176000D03*
X135042000Y-95176000D03*
X86042000Y-96376000D03*
X88442000Y-78176000D03*
X126842000Y-112176000D03*
X86042000Y-111576000D03*
X118442000Y-108176000D03*
X86042000Y-81176000D03*
X95442000Y-78176000D03*
X119842000Y-112176000D03*
X109842000Y-112176000D03*
X110442000Y-78176000D03*
X124442000Y-81576000D03*
X86842000Y-112176000D03*
X124442000Y-82576000D03*
X120842000Y-112176000D03*
X96442000Y-78176000D03*
X92842000Y-112176000D03*
X86042000Y-102576000D03*
X86042000Y-89176000D03*
X135042000Y-106176000D03*
X86042000Y-101376000D03*
X107442000Y-78176000D03*
X107842000Y-112176000D03*
X86042000Y-103576000D03*
X121442000Y-78176000D03*
X105842000Y-112176000D03*
X106442000Y-78176000D03*
X108842000Y-102576000D03*
X132842000Y-89526000D03*
X120442000Y-78176000D03*
X99842000Y-112176000D03*
X135042000Y-111176000D03*
X135042000Y-107176000D03*
X95642000Y-85176000D03*
X90442000Y-78176000D03*
X121042000Y-81676000D03*
X134842000Y-89526000D03*
X135042000Y-105176000D03*
X86042000Y-85176000D03*
X124442000Y-83576000D03*
X116442000Y-78176000D03*
X102442000Y-78176000D03*
X135042000Y-93176000D03*
X86042000Y-83176000D03*
X125842000Y-89526000D03*
X86042000Y-94376000D03*
X118242000Y-84176000D03*
X98092000Y-91276000D03*
X98092000Y-96776000D03*
X97092000Y-91526000D03*
X97342000Y-97776000D03*
X97584000Y-79659000D03*
X119042000Y-88576000D03*
X123242000Y-108276000D03*
X124817000Y-108168500D03*
X119842000Y-89676000D03*
D15*
X123842000Y-95276000D02*
X124347000Y-94771000D01*
X93292000Y-95276000D02*
X93342000Y-95276000D01*
X124347000Y-94771000D02*
X132117000Y-94771000D01*
X98092000Y-96776000D02*
X98092000Y-91276000D01*
X97342000Y-91776000D02*
X97092000Y-91526000D01*
X97342000Y-97776000D02*
X97342000Y-91776000D01*
X97584000Y-79659000D02*
X89967489Y-87275511D01*
X89967489Y-93170511D02*
X87842000Y-95296000D01*
X89967489Y-87275511D02*
X89967489Y-93170511D01*
X119042000Y-88576000D02*
X119042000Y-104076000D01*
X119042000Y-104076000D02*
X123242000Y-108276000D01*
X119842000Y-103576000D02*
X124434500Y-108168500D01*
X119842000Y-89676000D02*
X119842000Y-103576000D01*
X124434500Y-108168500D02*
X124817000Y-108168500D01*
G04 #@! TA.AperFunction,Conductor*
G36*
X124910121Y-77845002D02*
G01*
X124956614Y-77898658D01*
X124968000Y-77951000D01*
X124968000Y-89017000D01*
X135199000Y-89017000D01*
X135267121Y-89037002D01*
X135313614Y-89090658D01*
X135325000Y-89143000D01*
X135325000Y-112299000D01*
X135304998Y-112367121D01*
X135251342Y-112413614D01*
X135199000Y-112425000D01*
X85851000Y-112425000D01*
X85782879Y-112404998D01*
X85736386Y-112351342D01*
X85725000Y-112299000D01*
X85725000Y-102885359D01*
X101348181Y-102885359D01*
X101348280Y-102886754D01*
X101352986Y-102893971D01*
X101488140Y-103025632D01*
X101490994Y-103028247D01*
X101974508Y-103444870D01*
X101977498Y-103447291D01*
X102485538Y-103833614D01*
X102488685Y-103835859D01*
X103019354Y-104190441D01*
X103022647Y-104192498D01*
X103573960Y-104514014D01*
X103577371Y-104515866D01*
X104147285Y-104803127D01*
X104150792Y-104804762D01*
X104737220Y-105056712D01*
X104740785Y-105058116D01*
X105341498Y-105273794D01*
X105345163Y-105274984D01*
X105957918Y-105453586D01*
X105961625Y-105454545D01*
X106584155Y-105595409D01*
X106587913Y-105596140D01*
X107217898Y-105698739D01*
X107221686Y-105699238D01*
X107856734Y-105763184D01*
X107860574Y-105763453D01*
X108498346Y-105788511D01*
X108502174Y-105788544D01*
X109140285Y-105774620D01*
X109144127Y-105774418D01*
X109780191Y-105721566D01*
X109784001Y-105721132D01*
X110415650Y-105629547D01*
X110419446Y-105628878D01*
X111044321Y-105498904D01*
X111048075Y-105498002D01*
X111663829Y-105330129D01*
X111667538Y-105328995D01*
X112271913Y-105123837D01*
X112275491Y-105122499D01*
X112866254Y-104880812D01*
X112869733Y-104879263D01*
X113444629Y-104601966D01*
X113448026Y-104600197D01*
X114004925Y-104288319D01*
X114008192Y-104286356D01*
X114545006Y-103941066D01*
X114548173Y-103938889D01*
X115062892Y-103561481D01*
X115065919Y-103559116D01*
X115556631Y-103150996D01*
X115559516Y-103148443D01*
X115827516Y-102896333D01*
X115835550Y-102882633D01*
X115835517Y-102881819D01*
X115830443Y-102873653D01*
X108604812Y-95648022D01*
X108590868Y-95640408D01*
X108589035Y-95640539D01*
X108582420Y-95644790D01*
X101355795Y-102871415D01*
X101348181Y-102885359D01*
X85725000Y-102885359D01*
X85725000Y-100361262D01*
X86786520Y-100361262D01*
X86787036Y-100367406D01*
X86801037Y-100534133D01*
X86803759Y-100566553D01*
X86805458Y-100572478D01*
X86849714Y-100726816D01*
X86860544Y-100764586D01*
X86863359Y-100770063D01*
X86863360Y-100770066D01*
X86930908Y-100901500D01*
X86954712Y-100947818D01*
X87082677Y-101109270D01*
X87087370Y-101113264D01*
X87087371Y-101113265D01*
X87223367Y-101229006D01*
X87239564Y-101242791D01*
X87419398Y-101343297D01*
X87514238Y-101374113D01*
X87609471Y-101405056D01*
X87609475Y-101405057D01*
X87615329Y-101406959D01*
X87819894Y-101431351D01*
X87826029Y-101430879D01*
X87826031Y-101430879D01*
X87882039Y-101426569D01*
X88025300Y-101415546D01*
X88031230Y-101413890D01*
X88031232Y-101413890D01*
X88217797Y-101361800D01*
X88217796Y-101361800D01*
X88223725Y-101360145D01*
X88229214Y-101357372D01*
X88229220Y-101357370D01*
X88402116Y-101270033D01*
X88407610Y-101267258D01*
X88569951Y-101140424D01*
X88704564Y-100984472D01*
X88725387Y-100947818D01*
X88779567Y-100852443D01*
X88806323Y-100805344D01*
X88871351Y-100609863D01*
X88897171Y-100405474D01*
X88897583Y-100376000D01*
X88877480Y-100170970D01*
X88817935Y-99973749D01*
X88721218Y-99791849D01*
X88647859Y-99701902D01*
X88594906Y-99636975D01*
X88594903Y-99636972D01*
X88591011Y-99632200D01*
X88496161Y-99553733D01*
X88437025Y-99504811D01*
X88437021Y-99504809D01*
X88432275Y-99500882D01*
X88251055Y-99402897D01*
X88054254Y-99341977D01*
X88048129Y-99341333D01*
X88048128Y-99341333D01*
X87855498Y-99321087D01*
X87855496Y-99321087D01*
X87849369Y-99320443D01*
X87762529Y-99328346D01*
X87650342Y-99338555D01*
X87650339Y-99338556D01*
X87644203Y-99339114D01*
X87446572Y-99397280D01*
X87264002Y-99492726D01*
X87259201Y-99496586D01*
X87259198Y-99496588D01*
X87248971Y-99504811D01*
X87103447Y-99621815D01*
X86971024Y-99779630D01*
X86968056Y-99785028D01*
X86968053Y-99785033D01*
X86961315Y-99797290D01*
X86871776Y-99960162D01*
X86809484Y-100156532D01*
X86808798Y-100162649D01*
X86808797Y-100162653D01*
X86787207Y-100355137D01*
X86786520Y-100361262D01*
X85725000Y-100361262D01*
X85725000Y-97821262D01*
X86786520Y-97821262D01*
X86787463Y-97832494D01*
X86795159Y-97924134D01*
X86803759Y-98026553D01*
X86805458Y-98032478D01*
X86855781Y-98207974D01*
X86860544Y-98224586D01*
X86863359Y-98230063D01*
X86863360Y-98230066D01*
X86933026Y-98365622D01*
X86954712Y-98407818D01*
X87082677Y-98569270D01*
X87239564Y-98702791D01*
X87419398Y-98803297D01*
X87514238Y-98834112D01*
X87609471Y-98865056D01*
X87609475Y-98865057D01*
X87615329Y-98866959D01*
X87819894Y-98891351D01*
X87826029Y-98890879D01*
X87826031Y-98890879D01*
X87882039Y-98886569D01*
X88025300Y-98875546D01*
X88031230Y-98873890D01*
X88031232Y-98873890D01*
X88217797Y-98821800D01*
X88217796Y-98821800D01*
X88223725Y-98820145D01*
X88229214Y-98817372D01*
X88229220Y-98817370D01*
X88402116Y-98730033D01*
X88407610Y-98727258D01*
X88569951Y-98600424D01*
X88704564Y-98444472D01*
X88725387Y-98407818D01*
X88762385Y-98342688D01*
X88806323Y-98265344D01*
X88871351Y-98069863D01*
X88897171Y-97865474D01*
X88897583Y-97836000D01*
X88877480Y-97630970D01*
X88817935Y-97433749D01*
X88721218Y-97251849D01*
X88602242Y-97105970D01*
X88594906Y-97096975D01*
X88594903Y-97096972D01*
X88591011Y-97092200D01*
X88584173Y-97086543D01*
X88437025Y-96964811D01*
X88437021Y-96964809D01*
X88432275Y-96960882D01*
X88251055Y-96862897D01*
X88054254Y-96801977D01*
X88048129Y-96801333D01*
X88048128Y-96801333D01*
X87855498Y-96781087D01*
X87855496Y-96781087D01*
X87849369Y-96780443D01*
X87762529Y-96788346D01*
X87650342Y-96798555D01*
X87650339Y-96798556D01*
X87644203Y-96799114D01*
X87446572Y-96857280D01*
X87264002Y-96952726D01*
X87259201Y-96956586D01*
X87259198Y-96956588D01*
X87248971Y-96964811D01*
X87103447Y-97081815D01*
X86971024Y-97239630D01*
X86968056Y-97245028D01*
X86968053Y-97245033D01*
X86904276Y-97361044D01*
X86871776Y-97420162D01*
X86809484Y-97616532D01*
X86808798Y-97622649D01*
X86808797Y-97622653D01*
X86796253Y-97734491D01*
X86786520Y-97821262D01*
X85725000Y-97821262D01*
X85725000Y-95281262D01*
X86786520Y-95281262D01*
X86787036Y-95287406D01*
X86795159Y-95384134D01*
X86803759Y-95486553D01*
X86805458Y-95492478D01*
X86854142Y-95662258D01*
X86860544Y-95684586D01*
X86863359Y-95690063D01*
X86863360Y-95690066D01*
X86919887Y-95800056D01*
X86954712Y-95867818D01*
X87082677Y-96029270D01*
X87239564Y-96162791D01*
X87419398Y-96263297D01*
X87514238Y-96294112D01*
X87609471Y-96325056D01*
X87609475Y-96325057D01*
X87615329Y-96326959D01*
X87819894Y-96351351D01*
X87826029Y-96350879D01*
X87826031Y-96350879D01*
X87882039Y-96346569D01*
X88025300Y-96335546D01*
X88031230Y-96333890D01*
X88031232Y-96333890D01*
X88217797Y-96281800D01*
X88217796Y-96281800D01*
X88223725Y-96280145D01*
X88229214Y-96277372D01*
X88229220Y-96277370D01*
X88402116Y-96190033D01*
X88407610Y-96187258D01*
X88569951Y-96060424D01*
X88704564Y-95904472D01*
X88725387Y-95867818D01*
X88762385Y-95802688D01*
X88806323Y-95725344D01*
X88871351Y-95529863D01*
X88897171Y-95325474D01*
X88897583Y-95296000D01*
X88877480Y-95090970D01*
X88817935Y-94893749D01*
X88816312Y-94890696D01*
X88808944Y-94821024D01*
X88843808Y-94754518D01*
X89876405Y-93721922D01*
X89938717Y-93687896D01*
X90009533Y-93692961D01*
X90066368Y-93735508D01*
X90091179Y-93802028D01*
X90091500Y-93811017D01*
X90091500Y-98045748D01*
X90092707Y-98051816D01*
X90099386Y-98085392D01*
X90103133Y-98104231D01*
X90147448Y-98170552D01*
X90213769Y-98214867D01*
X90225938Y-98217288D01*
X90225939Y-98217288D01*
X90262630Y-98224586D01*
X90272252Y-98226500D01*
X96311748Y-98226500D01*
X96321370Y-98224586D01*
X96358061Y-98217288D01*
X96358062Y-98217288D01*
X96370231Y-98214867D01*
X96436552Y-98170552D01*
X96480867Y-98104231D01*
X96484615Y-98085392D01*
X96491293Y-98051816D01*
X96492500Y-98045748D01*
X96492500Y-97846407D01*
X96512502Y-97778286D01*
X96517192Y-97774222D01*
X96494005Y-97725008D01*
X96492500Y-97705593D01*
X96492500Y-92506252D01*
X96480867Y-92447769D01*
X96436552Y-92381448D01*
X96370231Y-92337133D01*
X96358062Y-92334712D01*
X96358061Y-92334712D01*
X96317816Y-92326707D01*
X96311748Y-92325500D01*
X90418989Y-92325500D01*
X90350868Y-92305498D01*
X90304375Y-92251842D01*
X90292989Y-92199500D01*
X90292989Y-91526000D01*
X96486318Y-91526000D01*
X96506956Y-91682762D01*
X96567464Y-91828841D01*
X96663718Y-91954282D01*
X96789159Y-92050536D01*
X96935238Y-92111044D01*
X96934236Y-92113462D01*
X96983723Y-92143618D01*
X97014753Y-92207475D01*
X97016500Y-92228385D01*
X97016500Y-97206714D01*
X96996498Y-97274835D01*
X96967204Y-97306677D01*
X96923159Y-97340474D01*
X96913718Y-97347718D01*
X96817464Y-97473159D01*
X96756956Y-97619238D01*
X96755878Y-97627426D01*
X96743422Y-97722039D01*
X96718495Y-97778387D01*
X96739396Y-97810909D01*
X96743422Y-97829961D01*
X96744217Y-97836000D01*
X96756956Y-97932762D01*
X96817464Y-98078841D01*
X96913718Y-98204282D01*
X97039159Y-98300536D01*
X97185238Y-98361044D01*
X97193426Y-98362122D01*
X97221964Y-98365879D01*
X97342000Y-98381682D01*
X97350188Y-98380604D01*
X97490574Y-98362122D01*
X97498762Y-98361044D01*
X97644841Y-98300536D01*
X97770282Y-98204282D01*
X97866536Y-98078841D01*
X97927044Y-97932762D01*
X97947682Y-97776000D01*
X97927044Y-97619238D01*
X97923491Y-97610659D01*
X97896972Y-97546637D01*
X97889383Y-97476047D01*
X97921163Y-97412560D01*
X97982221Y-97376333D01*
X98029827Y-97373497D01*
X98083812Y-97380604D01*
X98092000Y-97381682D01*
X98172984Y-97371020D01*
X98243131Y-97381959D01*
X98296230Y-97429087D01*
X98313218Y-97472440D01*
X98327855Y-97549536D01*
X98328690Y-97553299D01*
X98485798Y-98171919D01*
X98486850Y-98175588D01*
X98681434Y-98783467D01*
X98682724Y-98787111D01*
X98914054Y-99381974D01*
X98915543Y-99385483D01*
X99182763Y-99965124D01*
X99184480Y-99968569D01*
X99486574Y-100530793D01*
X99488502Y-100534133D01*
X99824358Y-101076870D01*
X99826478Y-101080073D01*
X100194835Y-101601288D01*
X100197177Y-101604394D01*
X100596640Y-102102114D01*
X100599176Y-102105084D01*
X100969937Y-102513260D01*
X100983499Y-102521534D01*
X100983721Y-102521529D01*
X100992782Y-102516008D01*
X108219978Y-95288812D01*
X108226356Y-95277132D01*
X108956408Y-95277132D01*
X108956539Y-95278965D01*
X108960790Y-95285580D01*
X116187109Y-102511899D01*
X116201053Y-102519513D01*
X116201864Y-102519455D01*
X116209868Y-102514137D01*
X116464443Y-102243516D01*
X116466996Y-102240631D01*
X116875116Y-101749919D01*
X116877481Y-101746892D01*
X117254889Y-101232173D01*
X117257066Y-101229006D01*
X117602356Y-100692192D01*
X117604319Y-100688925D01*
X117916197Y-100132026D01*
X117917966Y-100128629D01*
X118195263Y-99553733D01*
X118196812Y-99550254D01*
X118438499Y-98959491D01*
X118439837Y-98955913D01*
X118471187Y-98863559D01*
X118512024Y-98805483D01*
X118577777Y-98778704D01*
X118647569Y-98791725D01*
X118699242Y-98840412D01*
X118716500Y-98904060D01*
X118716500Y-104056290D01*
X118716020Y-104067272D01*
X118712736Y-104104807D01*
X118715590Y-104115456D01*
X118722491Y-104141210D01*
X118724870Y-104151942D01*
X118731412Y-104189045D01*
X118736923Y-104198590D01*
X118738115Y-104201866D01*
X118739592Y-104205034D01*
X118742446Y-104215684D01*
X118748770Y-104224715D01*
X118764055Y-104246544D01*
X118769961Y-104255815D01*
X118783293Y-104278906D01*
X118788806Y-104288455D01*
X118797251Y-104295541D01*
X118817682Y-104312685D01*
X118825785Y-104320111D01*
X122609291Y-108103617D01*
X122643317Y-108165929D01*
X122645118Y-108209157D01*
X122636318Y-108276000D01*
X122656956Y-108432762D01*
X122717464Y-108578841D01*
X122813718Y-108704282D01*
X122939159Y-108800536D01*
X123085238Y-108861044D01*
X123242000Y-108881682D01*
X123250188Y-108880604D01*
X123390574Y-108862122D01*
X123398762Y-108861044D01*
X123544841Y-108800536D01*
X123670282Y-108704282D01*
X123766536Y-108578841D01*
X123827044Y-108432762D01*
X123841554Y-108322546D01*
X123870276Y-108257619D01*
X123929541Y-108218527D01*
X124000533Y-108217682D01*
X124055571Y-108249897D01*
X124190389Y-108384715D01*
X124197816Y-108392819D01*
X124222045Y-108421694D01*
X124231594Y-108427207D01*
X124254685Y-108440539D01*
X124263947Y-108446439D01*
X124268385Y-108449546D01*
X124296085Y-108476060D01*
X124388718Y-108596782D01*
X124514159Y-108693036D01*
X124660238Y-108753544D01*
X124817000Y-108774182D01*
X124825188Y-108773104D01*
X124965574Y-108754622D01*
X124973762Y-108753544D01*
X125119841Y-108693036D01*
X125245282Y-108596782D01*
X125341536Y-108471341D01*
X125402044Y-108325262D01*
X125422682Y-108168500D01*
X125402044Y-108011738D01*
X125341536Y-107865659D01*
X125245282Y-107740218D01*
X125119841Y-107643964D01*
X124973762Y-107583456D01*
X124817000Y-107562818D01*
X124660238Y-107583456D01*
X124652609Y-107586616D01*
X124521788Y-107640804D01*
X124514159Y-107643964D01*
X124507612Y-107648988D01*
X124507466Y-107649072D01*
X124438471Y-107665809D01*
X124371379Y-107642587D01*
X124355373Y-107629047D01*
X120204405Y-103478079D01*
X120170379Y-103415767D01*
X120167500Y-103388984D01*
X120167500Y-100720748D01*
X131066500Y-100720748D01*
X131067707Y-100726816D01*
X131074042Y-100758662D01*
X131078133Y-100779231D01*
X131085026Y-100789547D01*
X131095581Y-100805344D01*
X131122448Y-100845552D01*
X131188769Y-100889867D01*
X131200938Y-100892288D01*
X131200939Y-100892288D01*
X131241184Y-100900293D01*
X131247252Y-100901500D01*
X132986748Y-100901500D01*
X132992816Y-100900293D01*
X133033061Y-100892288D01*
X133033062Y-100892288D01*
X133045231Y-100889867D01*
X133111552Y-100845552D01*
X133138419Y-100805344D01*
X133148974Y-100789547D01*
X133155867Y-100779231D01*
X133159959Y-100758662D01*
X133166293Y-100726816D01*
X133167500Y-100720748D01*
X133167500Y-98981252D01*
X133166293Y-98975184D01*
X133158288Y-98934939D01*
X133158288Y-98934938D01*
X133155867Y-98922769D01*
X133111552Y-98856448D01*
X133079658Y-98835137D01*
X133055547Y-98819026D01*
X133045231Y-98812133D01*
X133033062Y-98809712D01*
X133033061Y-98809712D01*
X132992816Y-98801707D01*
X132986748Y-98800500D01*
X131247252Y-98800500D01*
X131241184Y-98801707D01*
X131200939Y-98809712D01*
X131200938Y-98809712D01*
X131188769Y-98812133D01*
X131178453Y-98819026D01*
X131154342Y-98835137D01*
X131122448Y-98856448D01*
X131078133Y-98922769D01*
X131075712Y-98934938D01*
X131075712Y-98934939D01*
X131067707Y-98975184D01*
X131066500Y-98981252D01*
X131066500Y-100720748D01*
X120167500Y-100720748D01*
X120167500Y-98045748D01*
X120691500Y-98045748D01*
X120692707Y-98051816D01*
X120699386Y-98085392D01*
X120703133Y-98104231D01*
X120747448Y-98170552D01*
X120813769Y-98214867D01*
X120825938Y-98217288D01*
X120825939Y-98217288D01*
X120862630Y-98224586D01*
X120872252Y-98226500D01*
X126911748Y-98226500D01*
X126921370Y-98224586D01*
X126958061Y-98217288D01*
X126958062Y-98217288D01*
X126970231Y-98214867D01*
X127036552Y-98170552D01*
X127080867Y-98104231D01*
X127084615Y-98085392D01*
X127091293Y-98051816D01*
X127092500Y-98045748D01*
X127092500Y-97296262D01*
X131061520Y-97296262D01*
X131062036Y-97302406D01*
X131076375Y-97473159D01*
X131078759Y-97501553D01*
X131080458Y-97507478D01*
X131115869Y-97630970D01*
X131135544Y-97699586D01*
X131138359Y-97705063D01*
X131138360Y-97705066D01*
X131201234Y-97827406D01*
X131229712Y-97882818D01*
X131357677Y-98044270D01*
X131362370Y-98048264D01*
X131362371Y-98048265D01*
X131389333Y-98071211D01*
X131514564Y-98177791D01*
X131519942Y-98180797D01*
X131519944Y-98180798D01*
X131585235Y-98217288D01*
X131694398Y-98278297D01*
X131772568Y-98303696D01*
X131884471Y-98340056D01*
X131884475Y-98340057D01*
X131890329Y-98341959D01*
X132094894Y-98366351D01*
X132101029Y-98365879D01*
X132101031Y-98365879D01*
X132163865Y-98361044D01*
X132300300Y-98350546D01*
X132306230Y-98348890D01*
X132306232Y-98348890D01*
X132430104Y-98314304D01*
X132498725Y-98295145D01*
X132504214Y-98292372D01*
X132504220Y-98292370D01*
X132638408Y-98224586D01*
X132682610Y-98202258D01*
X132721443Y-98171919D01*
X132763781Y-98138841D01*
X132844951Y-98075424D01*
X132870567Y-98045748D01*
X132975540Y-97924134D01*
X132975540Y-97924133D01*
X132979564Y-97919472D01*
X133000387Y-97882818D01*
X133035355Y-97821262D01*
X133081323Y-97740344D01*
X133146351Y-97544863D01*
X133172171Y-97340474D01*
X133172583Y-97311000D01*
X133152480Y-97105970D01*
X133092935Y-96908749D01*
X132996218Y-96726849D01*
X132908452Y-96619238D01*
X132869906Y-96571975D01*
X132869903Y-96571972D01*
X132866011Y-96567200D01*
X132848786Y-96552950D01*
X132712025Y-96439811D01*
X132712021Y-96439809D01*
X132707275Y-96435882D01*
X132544219Y-96347718D01*
X132531474Y-96340827D01*
X132526055Y-96337897D01*
X132329254Y-96276977D01*
X132323129Y-96276333D01*
X132323128Y-96276333D01*
X132130498Y-96256087D01*
X132130496Y-96256087D01*
X132124369Y-96255443D01*
X132038065Y-96263297D01*
X131925342Y-96273555D01*
X131925339Y-96273556D01*
X131919203Y-96274114D01*
X131721572Y-96332280D01*
X131539002Y-96427726D01*
X131534201Y-96431586D01*
X131534198Y-96431588D01*
X131383254Y-96552950D01*
X131378447Y-96556815D01*
X131246024Y-96714630D01*
X131243056Y-96720028D01*
X131243053Y-96720033D01*
X131197003Y-96803799D01*
X131146776Y-96895162D01*
X131084484Y-97091532D01*
X131083798Y-97097649D01*
X131083797Y-97097653D01*
X131068402Y-97234903D01*
X131061520Y-97296262D01*
X127092500Y-97296262D01*
X127092500Y-95222500D01*
X127112502Y-95154379D01*
X127166158Y-95107886D01*
X127218500Y-95096500D01*
X131026211Y-95096500D01*
X131094332Y-95116502D01*
X131138278Y-95164906D01*
X131198077Y-95281262D01*
X131229712Y-95342818D01*
X131357677Y-95504270D01*
X131514564Y-95637791D01*
X131694398Y-95738297D01*
X131789238Y-95769113D01*
X131884471Y-95800056D01*
X131884475Y-95800057D01*
X131890329Y-95801959D01*
X132094894Y-95826351D01*
X132101029Y-95825879D01*
X132101031Y-95825879D01*
X132157039Y-95821569D01*
X132300300Y-95810546D01*
X132306230Y-95808890D01*
X132306232Y-95808890D01*
X132492797Y-95756800D01*
X132492796Y-95756800D01*
X132498725Y-95755145D01*
X132504214Y-95752372D01*
X132504220Y-95752370D01*
X132638408Y-95684586D01*
X132682610Y-95662258D01*
X132700832Y-95648022D01*
X132840101Y-95539213D01*
X132844951Y-95535424D01*
X132979564Y-95379472D01*
X133000387Y-95342818D01*
X133037701Y-95277132D01*
X133081323Y-95200344D01*
X133146351Y-95004863D01*
X133172171Y-94800474D01*
X133172583Y-94771000D01*
X133152480Y-94565970D01*
X133092935Y-94368749D01*
X132996218Y-94186849D01*
X132922859Y-94096902D01*
X132869906Y-94031975D01*
X132869903Y-94031972D01*
X132866011Y-94027200D01*
X132848786Y-94012950D01*
X132712025Y-93899811D01*
X132712021Y-93899809D01*
X132707275Y-93895882D01*
X132526055Y-93797897D01*
X132475183Y-93782150D01*
X132416025Y-93742899D01*
X132387477Y-93677895D01*
X132398605Y-93607776D01*
X132445876Y-93554804D01*
X132476235Y-93541099D01*
X132609255Y-93501191D01*
X132618842Y-93497433D01*
X132810095Y-93403739D01*
X132818945Y-93398464D01*
X132992328Y-93274792D01*
X133000200Y-93268139D01*
X133151052Y-93117812D01*
X133157730Y-93109965D01*
X133282003Y-92937020D01*
X133287313Y-92928183D01*
X133381670Y-92737267D01*
X133385469Y-92727672D01*
X133447377Y-92523910D01*
X133449555Y-92513837D01*
X133450986Y-92502962D01*
X133448775Y-92488778D01*
X133435617Y-92485000D01*
X130800225Y-92485000D01*
X130786694Y-92488973D01*
X130785257Y-92498966D01*
X130815565Y-92633446D01*
X130818645Y-92643275D01*
X130898770Y-92840603D01*
X130903413Y-92849794D01*
X131014694Y-93031388D01*
X131020777Y-93039699D01*
X131160213Y-93200667D01*
X131167580Y-93207883D01*
X131331434Y-93343916D01*
X131339881Y-93349831D01*
X131523756Y-93457279D01*
X131533042Y-93461729D01*
X131732001Y-93537703D01*
X131746866Y-93542022D01*
X131746289Y-93544008D01*
X131801260Y-93573082D01*
X131836110Y-93634936D01*
X131831988Y-93705813D01*
X131790201Y-93763209D01*
X131748930Y-93784228D01*
X131727489Y-93790538D01*
X131727484Y-93790540D01*
X131721572Y-93792280D01*
X131539002Y-93887726D01*
X131534201Y-93891586D01*
X131534198Y-93891588D01*
X131523971Y-93899811D01*
X131378447Y-94016815D01*
X131246024Y-94174630D01*
X131243056Y-94180028D01*
X131243053Y-94180033D01*
X131165412Y-94321263D01*
X131146776Y-94355162D01*
X131144914Y-94361031D01*
X131142485Y-94366699D01*
X131140458Y-94365830D01*
X131106342Y-94416481D01*
X131041140Y-94444575D01*
X131025901Y-94445500D01*
X127218500Y-94445500D01*
X127150379Y-94425498D01*
X127103886Y-94371842D01*
X127092500Y-94319500D01*
X127092500Y-92506252D01*
X127080867Y-92447769D01*
X127036552Y-92381448D01*
X126970231Y-92337133D01*
X126958062Y-92334712D01*
X126958061Y-92334712D01*
X126917816Y-92326707D01*
X126911748Y-92325500D01*
X120872252Y-92325500D01*
X120866184Y-92326707D01*
X120825939Y-92334712D01*
X120825938Y-92334712D01*
X120813769Y-92337133D01*
X120747448Y-92381448D01*
X120703133Y-92447769D01*
X120691500Y-92506252D01*
X120691500Y-98045748D01*
X120167500Y-98045748D01*
X120167500Y-91965183D01*
X130781389Y-91965183D01*
X130782912Y-91973607D01*
X130795292Y-91977000D01*
X131844885Y-91977000D01*
X131860124Y-91972525D01*
X131861329Y-91971135D01*
X131863000Y-91963452D01*
X131863000Y-91958885D01*
X132371000Y-91958885D01*
X132375475Y-91974124D01*
X132376865Y-91975329D01*
X132384548Y-91977000D01*
X133435344Y-91977000D01*
X133448875Y-91973027D01*
X133450180Y-91963947D01*
X133408214Y-91796875D01*
X133404894Y-91787124D01*
X133319972Y-91591814D01*
X133315105Y-91582739D01*
X133199426Y-91403926D01*
X133193136Y-91395757D01*
X133049806Y-91238240D01*
X133042273Y-91231215D01*
X132875139Y-91099222D01*
X132866552Y-91093517D01*
X132680117Y-90990599D01*
X132670705Y-90986369D01*
X132469959Y-90915280D01*
X132459988Y-90912646D01*
X132388837Y-90899972D01*
X132375540Y-90901432D01*
X132371000Y-90915989D01*
X132371000Y-91958885D01*
X131863000Y-91958885D01*
X131863000Y-90914102D01*
X131859082Y-90900758D01*
X131844806Y-90898771D01*
X131806324Y-90904660D01*
X131796288Y-90907051D01*
X131593868Y-90973212D01*
X131584359Y-90977209D01*
X131395463Y-91075542D01*
X131386738Y-91081036D01*
X131216433Y-91208905D01*
X131208726Y-91215748D01*
X131061590Y-91369717D01*
X131055104Y-91377727D01*
X130935098Y-91553649D01*
X130930000Y-91562623D01*
X130840338Y-91755783D01*
X130836775Y-91765470D01*
X130781389Y-91965183D01*
X120167500Y-91965183D01*
X120167500Y-90245286D01*
X120187502Y-90177165D01*
X120216796Y-90145323D01*
X120263736Y-90109305D01*
X120270282Y-90104282D01*
X120366536Y-89978841D01*
X120427044Y-89832762D01*
X120447682Y-89676000D01*
X120427044Y-89519238D01*
X120366536Y-89373159D01*
X120270282Y-89247718D01*
X120263498Y-89242512D01*
X120179335Y-89177932D01*
X120144841Y-89151464D01*
X119998762Y-89090956D01*
X119842000Y-89070318D01*
X119685238Y-89090956D01*
X119684786Y-89091143D01*
X119617407Y-89089539D01*
X119558612Y-89049744D01*
X119530665Y-88984479D01*
X119542439Y-88914466D01*
X119555812Y-88892818D01*
X119561506Y-88885397D01*
X119561509Y-88885392D01*
X119566536Y-88878841D01*
X119627044Y-88732762D01*
X119647682Y-88576000D01*
X119627044Y-88419238D01*
X119566536Y-88273159D01*
X119470282Y-88147718D01*
X119344841Y-88051464D01*
X119198762Y-87990956D01*
X119042000Y-87970318D01*
X118885238Y-87990956D01*
X118739159Y-88051464D01*
X118613718Y-88147718D01*
X118517464Y-88273159D01*
X118456956Y-88419238D01*
X118436318Y-88576000D01*
X118456956Y-88732762D01*
X118517464Y-88878841D01*
X118613718Y-89004282D01*
X118620264Y-89009305D01*
X118667204Y-89045323D01*
X118709071Y-89102661D01*
X118716500Y-89145286D01*
X118716500Y-91652578D01*
X118696498Y-91720699D01*
X118642842Y-91767192D01*
X118572568Y-91777296D01*
X118507988Y-91747802D01*
X118471545Y-91694119D01*
X118407348Y-91510287D01*
X118405979Y-91506722D01*
X118159152Y-90918107D01*
X118157561Y-90914614D01*
X117875268Y-90342180D01*
X117873460Y-90338779D01*
X117556746Y-89784646D01*
X117554744Y-89781378D01*
X117204785Y-89247601D01*
X117202588Y-89244465D01*
X116820704Y-88733058D01*
X116818301Y-88730038D01*
X116405922Y-88242917D01*
X116403336Y-88240044D01*
X116212317Y-88040504D01*
X116198548Y-88032591D01*
X116197443Y-88032646D01*
X116189718Y-88037492D01*
X108964022Y-95263188D01*
X108956408Y-95277132D01*
X108226356Y-95277132D01*
X108227592Y-95274868D01*
X108227461Y-95273035D01*
X108223210Y-95266420D01*
X100994016Y-88037226D01*
X100980072Y-88029612D01*
X100978091Y-88029753D01*
X100971684Y-88033852D01*
X100967523Y-88037976D01*
X100964860Y-88040782D01*
X100539876Y-88516937D01*
X100537389Y-88519901D01*
X100142245Y-89021138D01*
X100139981Y-89024197D01*
X99776152Y-89548655D01*
X99774075Y-89551853D01*
X99442974Y-90097492D01*
X99441052Y-90100890D01*
X99143899Y-90665684D01*
X99142195Y-90669177D01*
X98918364Y-91166061D01*
X98872148Y-91219955D01*
X98804132Y-91240308D01*
X98735909Y-91220658D01*
X98689140Y-91167242D01*
X98678561Y-91130757D01*
X98677044Y-91119238D01*
X98616536Y-90973159D01*
X98520282Y-90847718D01*
X98394841Y-90751464D01*
X98248762Y-90690956D01*
X98092000Y-90670318D01*
X97935238Y-90690956D01*
X97789159Y-90751464D01*
X97663718Y-90847718D01*
X97567464Y-90973159D01*
X97565106Y-90971350D01*
X97524053Y-91010487D01*
X97454339Y-91023916D01*
X97403330Y-91007609D01*
X97401389Y-91006488D01*
X97394841Y-91001464D01*
X97387215Y-90998305D01*
X97387213Y-90998304D01*
X97256391Y-90944116D01*
X97248762Y-90940956D01*
X97092000Y-90920318D01*
X96935238Y-90940956D01*
X96789159Y-91001464D01*
X96663718Y-91097718D01*
X96567464Y-91223159D01*
X96506956Y-91369238D01*
X96486318Y-91526000D01*
X90292989Y-91526000D01*
X90292989Y-87667925D01*
X101347175Y-87667925D01*
X101347288Y-87669614D01*
X101351661Y-87676451D01*
X108579188Y-94903978D01*
X108593132Y-94911592D01*
X108594965Y-94911461D01*
X108601580Y-94907210D01*
X115828596Y-87680194D01*
X115836210Y-87666250D01*
X115836173Y-87665733D01*
X115830543Y-87657338D01*
X115490550Y-87343053D01*
X115487643Y-87340527D01*
X114993404Y-86936716D01*
X114990321Y-86934350D01*
X114472354Y-86561468D01*
X114469161Y-86559314D01*
X113929380Y-86218737D01*
X113926056Y-86216779D01*
X113366464Y-85909776D01*
X113363065Y-85908045D01*
X112785792Y-85635785D01*
X112782248Y-85634244D01*
X112189450Y-85397742D01*
X112185818Y-85396420D01*
X111579672Y-85196543D01*
X111575996Y-85195454D01*
X110958770Y-85032952D01*
X110955013Y-85032084D01*
X110329022Y-84907567D01*
X110325243Y-84906934D01*
X109692823Y-84820866D01*
X109688987Y-84820462D01*
X109052492Y-84773163D01*
X109048631Y-84772995D01*
X108410455Y-84764640D01*
X108406598Y-84764707D01*
X107769071Y-84795330D01*
X107765257Y-84795631D01*
X107130795Y-84865116D01*
X107126972Y-84865653D01*
X106497939Y-84973740D01*
X106494184Y-84974504D01*
X105872895Y-85120798D01*
X105869213Y-85121785D01*
X105258015Y-85305735D01*
X105254383Y-85306950D01*
X104655581Y-85527859D01*
X104651991Y-85529310D01*
X104067801Y-85786361D01*
X104064337Y-85788013D01*
X103496903Y-86080260D01*
X103493561Y-86082112D01*
X102945038Y-86408450D01*
X102941775Y-86410529D01*
X102414230Y-86769721D01*
X102411089Y-86772003D01*
X101906454Y-87162734D01*
X101903466Y-87165196D01*
X101423604Y-87586024D01*
X101420792Y-87588647D01*
X101354849Y-87654017D01*
X101347175Y-87667925D01*
X90292989Y-87667925D01*
X90292989Y-87462527D01*
X90312991Y-87394406D01*
X90329894Y-87373432D01*
X97411618Y-80291709D01*
X97473930Y-80257683D01*
X97517158Y-80255882D01*
X97584000Y-80264682D01*
X97592188Y-80263604D01*
X97732574Y-80245122D01*
X97740762Y-80244044D01*
X97886841Y-80183536D01*
X98012282Y-80087282D01*
X98108536Y-79961841D01*
X98169044Y-79815762D01*
X98189682Y-79659000D01*
X98169044Y-79502238D01*
X98108536Y-79356159D01*
X98012282Y-79230718D01*
X97886841Y-79134464D01*
X97740762Y-79073956D01*
X97584000Y-79053318D01*
X97427238Y-79073956D01*
X97281159Y-79134464D01*
X97155718Y-79230718D01*
X97059464Y-79356159D01*
X96998956Y-79502238D01*
X96978318Y-79659000D01*
X96979396Y-79667187D01*
X96987118Y-79725840D01*
X96976179Y-79795989D01*
X96951291Y-79831382D01*
X89751273Y-87031401D01*
X89743170Y-87038827D01*
X89714295Y-87063056D01*
X89708782Y-87072605D01*
X89695450Y-87095696D01*
X89689544Y-87104967D01*
X89667935Y-87135827D01*
X89665081Y-87146477D01*
X89663604Y-87149645D01*
X89662412Y-87152921D01*
X89656901Y-87162466D01*
X89650951Y-87196210D01*
X89650359Y-87199569D01*
X89647981Y-87210296D01*
X89638225Y-87246704D01*
X89639186Y-87257689D01*
X89639186Y-87257691D01*
X89641509Y-87284239D01*
X89641989Y-87295221D01*
X89641989Y-92983494D01*
X89621987Y-93051615D01*
X89605084Y-93072589D01*
X88383490Y-94294183D01*
X88321178Y-94328209D01*
X88251400Y-94321781D01*
X88251055Y-94322897D01*
X88245776Y-94321263D01*
X88245777Y-94321263D01*
X88054254Y-94261977D01*
X88048129Y-94261333D01*
X88048128Y-94261333D01*
X87855498Y-94241087D01*
X87855496Y-94241087D01*
X87849369Y-94240443D01*
X87762529Y-94248346D01*
X87650342Y-94258555D01*
X87650339Y-94258556D01*
X87644203Y-94259114D01*
X87446572Y-94317280D01*
X87264002Y-94412726D01*
X87259201Y-94416586D01*
X87259198Y-94416588D01*
X87223239Y-94445500D01*
X87103447Y-94541815D01*
X86971024Y-94699630D01*
X86968056Y-94705028D01*
X86968053Y-94705033D01*
X86904287Y-94821024D01*
X86871776Y-94880162D01*
X86809484Y-95076532D01*
X86808798Y-95082649D01*
X86808797Y-95082653D01*
X86800752Y-95154379D01*
X86786520Y-95281262D01*
X85725000Y-95281262D01*
X85725000Y-92741262D01*
X86786520Y-92741262D01*
X86803759Y-92946553D01*
X86805458Y-92952478D01*
X86852867Y-93117812D01*
X86860544Y-93144586D01*
X86863359Y-93150063D01*
X86863360Y-93150066D01*
X86893074Y-93207883D01*
X86954712Y-93327818D01*
X87082677Y-93489270D01*
X87087370Y-93493264D01*
X87087371Y-93493265D01*
X87144661Y-93542022D01*
X87239564Y-93622791D01*
X87419398Y-93723297D01*
X87479727Y-93742899D01*
X87609471Y-93785056D01*
X87609475Y-93785057D01*
X87615329Y-93786959D01*
X87819894Y-93811351D01*
X87826029Y-93810879D01*
X87826031Y-93810879D01*
X87882039Y-93806569D01*
X88025300Y-93795546D01*
X88031230Y-93793890D01*
X88031232Y-93793890D01*
X88217797Y-93741800D01*
X88217796Y-93741800D01*
X88223725Y-93740145D01*
X88229214Y-93737372D01*
X88229220Y-93737370D01*
X88402116Y-93650033D01*
X88407610Y-93647258D01*
X88569951Y-93520424D01*
X88586553Y-93501191D01*
X88700540Y-93369134D01*
X88700540Y-93369133D01*
X88704564Y-93364472D01*
X88716242Y-93343916D01*
X88803276Y-93190707D01*
X88806323Y-93185344D01*
X88871351Y-92989863D01*
X88897171Y-92785474D01*
X88897583Y-92756000D01*
X88877480Y-92550970D01*
X88817935Y-92353749D01*
X88721218Y-92171849D01*
X88647859Y-92081902D01*
X88594906Y-92016975D01*
X88594903Y-92016972D01*
X88591011Y-92012200D01*
X88546442Y-91975329D01*
X88437025Y-91884811D01*
X88437021Y-91884809D01*
X88432275Y-91880882D01*
X88251055Y-91782897D01*
X88054254Y-91721977D01*
X88048129Y-91721333D01*
X88048128Y-91721333D01*
X87855498Y-91701087D01*
X87855496Y-91701087D01*
X87849369Y-91700443D01*
X87778955Y-91706851D01*
X87650342Y-91718555D01*
X87650339Y-91718556D01*
X87644203Y-91719114D01*
X87446572Y-91777280D01*
X87441107Y-91780137D01*
X87362540Y-91821211D01*
X87264002Y-91872726D01*
X87259201Y-91876586D01*
X87259198Y-91876588D01*
X87139252Y-91973027D01*
X87103447Y-92001815D01*
X86971024Y-92159630D01*
X86968056Y-92165028D01*
X86968053Y-92165033D01*
X86920330Y-92251842D01*
X86871776Y-92340162D01*
X86809484Y-92536532D01*
X86808798Y-92542649D01*
X86808797Y-92542653D01*
X86798613Y-92633446D01*
X86786520Y-92741262D01*
X85725000Y-92741262D01*
X85725000Y-88570669D01*
X86484001Y-88570669D01*
X86484371Y-88577490D01*
X86489895Y-88628352D01*
X86493521Y-88643604D01*
X86538676Y-88764054D01*
X86547214Y-88779649D01*
X86623715Y-88881724D01*
X86636276Y-88894285D01*
X86738351Y-88970786D01*
X86753946Y-88979324D01*
X86874394Y-89024478D01*
X86889649Y-89028105D01*
X86940514Y-89033631D01*
X86947328Y-89034000D01*
X87322432Y-89034000D01*
X87390553Y-89054002D01*
X87437046Y-89107658D01*
X87447150Y-89177932D01*
X87417656Y-89242512D01*
X87380812Y-89271659D01*
X87264002Y-89332726D01*
X87259201Y-89336586D01*
X87259198Y-89336588D01*
X87248971Y-89344811D01*
X87103447Y-89461815D01*
X86971024Y-89619630D01*
X86968056Y-89625028D01*
X86968053Y-89625033D01*
X86880306Y-89784646D01*
X86871776Y-89800162D01*
X86809484Y-89996532D01*
X86808798Y-90002649D01*
X86808797Y-90002653D01*
X86789223Y-90177165D01*
X86786520Y-90201262D01*
X86803759Y-90406553D01*
X86860544Y-90604586D01*
X86863359Y-90610063D01*
X86863360Y-90610066D01*
X86938612Y-90756491D01*
X86954712Y-90787818D01*
X87082677Y-90949270D01*
X87087370Y-90953264D01*
X87087371Y-90953265D01*
X87149912Y-91006491D01*
X87239564Y-91082791D01*
X87244942Y-91085797D01*
X87244944Y-91085798D01*
X87304778Y-91119238D01*
X87419398Y-91183297D01*
X87498211Y-91208905D01*
X87609471Y-91245056D01*
X87609475Y-91245057D01*
X87615329Y-91246959D01*
X87819894Y-91271351D01*
X87826029Y-91270879D01*
X87826031Y-91270879D01*
X87882039Y-91266569D01*
X88025300Y-91255546D01*
X88031230Y-91253890D01*
X88031232Y-91253890D01*
X88217797Y-91201800D01*
X88217796Y-91201800D01*
X88223725Y-91200145D01*
X88229214Y-91197372D01*
X88229220Y-91197370D01*
X88367694Y-91127421D01*
X88407610Y-91107258D01*
X88569951Y-90980424D01*
X88576177Y-90973212D01*
X88700540Y-90829134D01*
X88700540Y-90829133D01*
X88704564Y-90824472D01*
X88725387Y-90787818D01*
X88746038Y-90751464D01*
X88806323Y-90645344D01*
X88871351Y-90449863D01*
X88897171Y-90245474D01*
X88897583Y-90216000D01*
X88877480Y-90010970D01*
X88817935Y-89813749D01*
X88721218Y-89631849D01*
X88647859Y-89541902D01*
X88594906Y-89476975D01*
X88594903Y-89476972D01*
X88591011Y-89472200D01*
X88573786Y-89457950D01*
X88437025Y-89344811D01*
X88437021Y-89344809D01*
X88432275Y-89340882D01*
X88304255Y-89271662D01*
X88302726Y-89270835D01*
X88252317Y-89220840D01*
X88236940Y-89151529D01*
X88261476Y-89084907D01*
X88318136Y-89042126D01*
X88362655Y-89033999D01*
X88736669Y-89033999D01*
X88743490Y-89033629D01*
X88794352Y-89028105D01*
X88809604Y-89024479D01*
X88930054Y-88979324D01*
X88945649Y-88970786D01*
X89047724Y-88894285D01*
X89060285Y-88881724D01*
X89136786Y-88779649D01*
X89145324Y-88764054D01*
X89190478Y-88643606D01*
X89194105Y-88628351D01*
X89199631Y-88577486D01*
X89200000Y-88570672D01*
X89200000Y-87948115D01*
X89195525Y-87932876D01*
X89194135Y-87931671D01*
X89186452Y-87930000D01*
X86502116Y-87930000D01*
X86486877Y-87934475D01*
X86485672Y-87935865D01*
X86484001Y-87943548D01*
X86484001Y-88570669D01*
X85725000Y-88570669D01*
X85725000Y-87403885D01*
X86484000Y-87403885D01*
X86488475Y-87419124D01*
X86489865Y-87420329D01*
X86497548Y-87422000D01*
X87569885Y-87422000D01*
X87585124Y-87417525D01*
X87586329Y-87416135D01*
X87588000Y-87408452D01*
X87588000Y-87403885D01*
X88096000Y-87403885D01*
X88100475Y-87419124D01*
X88101865Y-87420329D01*
X88109548Y-87422000D01*
X89181884Y-87422000D01*
X89197123Y-87417525D01*
X89198328Y-87416135D01*
X89199999Y-87408452D01*
X89199999Y-86781331D01*
X89199629Y-86774510D01*
X89194105Y-86723648D01*
X89190479Y-86708396D01*
X89145324Y-86587946D01*
X89136786Y-86572351D01*
X89060285Y-86470276D01*
X89047724Y-86457715D01*
X88945649Y-86381214D01*
X88930054Y-86372676D01*
X88809606Y-86327522D01*
X88794351Y-86323895D01*
X88743486Y-86318369D01*
X88736672Y-86318000D01*
X88114115Y-86318000D01*
X88098876Y-86322475D01*
X88097671Y-86323865D01*
X88096000Y-86331548D01*
X88096000Y-87403885D01*
X87588000Y-87403885D01*
X87588000Y-86336116D01*
X87583525Y-86320877D01*
X87582135Y-86319672D01*
X87574452Y-86318001D01*
X86947331Y-86318001D01*
X86940510Y-86318371D01*
X86889648Y-86323895D01*
X86874396Y-86327521D01*
X86753946Y-86372676D01*
X86738351Y-86381214D01*
X86636276Y-86457715D01*
X86623715Y-86470276D01*
X86547214Y-86572351D01*
X86538676Y-86587946D01*
X86493522Y-86708394D01*
X86489895Y-86723649D01*
X86484369Y-86774514D01*
X86484000Y-86781328D01*
X86484000Y-87403885D01*
X85725000Y-87403885D01*
X85725000Y-77951000D01*
X85745002Y-77882879D01*
X85798658Y-77836386D01*
X85851000Y-77825000D01*
X124842000Y-77825000D01*
X124910121Y-77845002D01*
G37*
G04 #@! TD.AperFunction*
M02*
