M48
; DRILL file {KiCad (6.0.1)} date Wed Sep 21 11:39:48 2022
; FORMAT={3:3/ absolute / metric / suppress leading zeros}
; #@! TF.CreationDate,2022-09-21T11:39:48+02:00
; #@! TF.GenerationSoftware,Kicad,Pcbnew,(6.0.1)
; #@! TF.FileFunction,MixedPlating,1,2
FMAT,2
METRIC,TZ
; #@! TA.AperFunction,Plated,PTH,ViaDrill
T1C0.400
; #@! TA.AperFunction,Plated,PTH,ComponentDrill
T2C1.000
%
G90
G05
T1
X86042Y-78176
X86042Y-79176
X86042Y-80176
X86042Y-81176
X86042Y-82176
X86042Y-83176
X86042Y-84176
X86042Y-85176
X86042Y-86176
X86042Y-87176
X86042Y-88176
X86042Y-89176
X86042Y-90376
X86042Y-91376
X86042Y-92376
X86042Y-93376
X86042Y-94376
X86042Y-95376
X86042Y-96376
X86042Y-97376
X86042Y-98376
X86042Y-99376
X86042Y-100376
X86042Y-101376
X86042Y-102576
X86042Y-103576
X86042Y-104576
X86042Y-105576
X86042Y-106576
X86042Y-107576
X86042Y-108576
X86042Y-109576
X86042Y-110576
X86042Y-111576
X86842Y-112176
X87242Y-78176
X87842Y-112176
X88442Y-78176
X88842Y-112176
X89442Y-78176
X89842Y-112176
X90442Y-78176
X90842Y-82176
X90842Y-112176
X91242Y-105376
X91242Y-107976
X91442Y-78176
X91842Y-112176
X92442Y-78176
X92842Y-112176
X93342Y-95276
X93442Y-78176
X93842Y-112176
X94442Y-78176
X94842Y-112176
X95442Y-78176
X95442Y-105376
X95442Y-108176
X95642Y-85176
X95842Y-112176
X96442Y-78176
X96842Y-112176
X97092Y-91526
X97342Y-97776
X97442Y-78176
X97584Y-79659
X97842Y-112176
X98092Y-91276
X98092Y-96776
X98442Y-78176
X98842Y-112176
X99442Y-78176
X99842Y-108176
X99842Y-112176
X100442Y-78176
X100842Y-112176
X101442Y-78176
X101842Y-112176
X102442Y-78176
X102842Y-112176
X103442Y-78176
X103842Y-112176
X104442Y-78176
X104442Y-90976
X104842Y-112176
X105442Y-78176
X105842Y-112176
X106442Y-78176
X106842Y-112176
X107442Y-78176
X107842Y-112176
X108442Y-78176
X108842Y-102576
X108842Y-112176
X109442Y-78176
X109842Y-112176
X110442Y-78176
X110842Y-112176
X111442Y-78176
X111842Y-112176
X112442Y-78176
X112842Y-112176
X113342Y-93276
X113442Y-78176
X113442Y-88876
X113842Y-112176
X114442Y-78176
X114842Y-112176
X115442Y-78176
X115842Y-112176
X116442Y-78176
X116842Y-112176
X117442Y-78176
X117842Y-112176
X118242Y-84176
X118442Y-78176
X118442Y-108176
X118842Y-112176
X119042Y-88576
X119442Y-78176
X119842Y-89676
X119842Y-112176
X120442Y-78176
X120842Y-112176
X121042Y-81676
X121442Y-78176
X121742Y-81076
X121842Y-112176
X122442Y-78176
X122642Y-81076
X122842Y-112176
X123242Y-108276
X123442Y-78176
X123642Y-81076
X123842Y-95276
X123842Y-112176
X124442Y-78176
X124442Y-81576
X124442Y-82576
X124442Y-83576
X124442Y-84576
X124442Y-85576
X124442Y-86576
X124442Y-87576
X124442Y-88576
X124817Y-108168
X124842Y-89526
X124842Y-112176
X125842Y-89526
X125842Y-112176
X126842Y-89526
X126842Y-112176
X127842Y-89526
X127842Y-112176
X128842Y-89526
X128842Y-112176
X129842Y-89526
X129842Y-112176
X130842Y-89526
X130842Y-112176
X131842Y-89526
X131842Y-112176
X132842Y-89526
X132842Y-112176
X133842Y-89526
X133842Y-112176
X134842Y-89526
X135042Y-91176
X135042Y-92176
X135042Y-93176
X135042Y-94176
X135042Y-95176
X135042Y-96176
X135042Y-97176
X135042Y-98176
X135042Y-99176
X135042Y-100176
X135042Y-101176
X135042Y-102176
X135042Y-103176
X135042Y-104176
X135042Y-105176
X135042Y-106176
X135042Y-107176
X135042Y-108176
X135042Y-109176
X135042Y-110176
X135042Y-111176
X135042Y-112176
T2
X87842Y-87676
X87842Y-90216
X87842Y-92756
X87842Y-95296
X87842Y-97836
X87842Y-100376
X132117Y-92231
X132117Y-94771
X132117Y-97311
X132117Y-99851
T0
M30
