G04 #@! TF.GenerationSoftware,KiCad,Pcbnew,(6.0.1)*
G04 #@! TF.CreationDate,2022-09-21T11:39:00+02:00*
G04 #@! TF.ProjectId,LoRa-E5_BME680,4c6f5261-2d45-4355-9f42-4d453638302e,rev?*
G04 #@! TF.SameCoordinates,Original*
G04 #@! TF.FileFunction,Legend,Bot*
G04 #@! TF.FilePolarity,Positive*
%FSLAX46Y46*%
G04 Gerber Fmt 4.6, Leading zero omitted, Abs format (unit mm)*
G04 Created by KiCad (PCBNEW (6.0.1)) date 2022-09-21 11:39:00*
%MOMM*%
%LPD*%
G01*
G04 APERTURE LIST*
%ADD10C,0.150000*%
%ADD11C,0.120000*%
G04 APERTURE END LIST*
D10*
X109377714Y-109604571D02*
X109234857Y-109652190D01*
X109187238Y-109699809D01*
X109139619Y-109795047D01*
X109139619Y-109937904D01*
X109187238Y-110033142D01*
X109234857Y-110080761D01*
X109330095Y-110128380D01*
X109711047Y-110128380D01*
X109711047Y-109128380D01*
X109377714Y-109128380D01*
X109282476Y-109176000D01*
X109234857Y-109223619D01*
X109187238Y-109318857D01*
X109187238Y-109414095D01*
X109234857Y-109509333D01*
X109282476Y-109556952D01*
X109377714Y-109604571D01*
X109711047Y-109604571D01*
X108853904Y-109128380D02*
X108282476Y-109128380D01*
X108568190Y-110128380D02*
X108568190Y-109128380D01*
X107425333Y-110128380D02*
X107996761Y-110128380D01*
X107711047Y-110128380D02*
X107711047Y-109128380D01*
X107806285Y-109271238D01*
X107901523Y-109366476D01*
X107996761Y-109414095D01*
D11*
X121442000Y-92176000D02*
X121442000Y-87976000D01*
X104642000Y-108326000D02*
X112542000Y-108326000D01*
X95742000Y-101676000D02*
X95742000Y-98376000D01*
X95742000Y-92176000D02*
X95742000Y-87976000D01*
X121442000Y-101676000D02*
X121442000Y-98376000D01*
X104642000Y-108326000D02*
X104642000Y-107526000D01*
X104642000Y-107526000D02*
X95742000Y-101676000D01*
X112542000Y-108326000D02*
X112542000Y-107526000D01*
X112542000Y-107526000D02*
X121442000Y-101676000D01*
X121442000Y-88026000D02*
G75*
G03*
X118742000Y-85326000I-2700001J-1D01*
G01*
X98442000Y-85326000D02*
G75*
G03*
X95742000Y-88026000I1J-2700001D01*
G01*
X118742000Y-85326000D02*
G75*
G03*
X118070249Y-85604249I-2J-949992D01*
G01*
X99113751Y-85604249D02*
G75*
G03*
X98442000Y-85326000I-671753J-671754D01*
G01*
M02*
