G04 #@! TF.GenerationSoftware,KiCad,Pcbnew,(6.0.1)*
G04 #@! TF.CreationDate,2022-09-21T11:39:00+02:00*
G04 #@! TF.ProjectId,LoRa-E5_BME680,4c6f5261-2d45-4355-9f42-4d453638302e,rev?*
G04 #@! TF.SameCoordinates,Original*
G04 #@! TF.FileFunction,Paste,Top*
G04 #@! TF.FilePolarity,Positive*
%FSLAX46Y46*%
G04 Gerber Fmt 4.6, Leading zero omitted, Abs format (unit mm)*
G04 Created by KiCad (PCBNEW (6.0.1)) date 2022-09-21 11:39:00*
%MOMM*%
%LPD*%
G01*
G04 APERTURE LIST*
G04 Aperture macros list*
%AMRoundRect*
0 Rectangle with rounded corners*
0 $1 Rounding radius*
0 $2 $3 $4 $5 $6 $7 $8 $9 X,Y pos of 4 corners*
0 Add a 4 corners polygon primitive as box body*
4,1,4,$2,$3,$4,$5,$6,$7,$8,$9,$2,$3,0*
0 Add four circle primitives for the rounded corners*
1,1,$1+$1,$2,$3*
1,1,$1+$1,$4,$5*
1,1,$1+$1,$6,$7*
1,1,$1+$1,$8,$9*
0 Add four rect primitives between the rounded corners*
20,1,$1+$1,$2,$3,$4,$5,0*
20,1,$1+$1,$4,$5,$6,$7,0*
20,1,$1+$1,$6,$7,$8,$9,0*
20,1,$1+$1,$8,$9,$2,$3,0*%
%AMFreePoly0*
4,1,13,0.500000,-6.000000,-6.600000,-6.000000,-6.600000,-3.000000,-1.500000,-3.000000,-1.500000,-3.500000,-6.100000,-3.500000,-6.100000,-5.500000,0.000000,-5.500000,0.000000,-0.900000,-0.500000,-0.900000,-0.500000,0.900000,0.500000,0.900000,0.500000,-6.000000,0.500000,-6.000000,$1*%
G04 Aperture macros list end*
%ADD10RoundRect,0.225000X-0.250000X0.225000X-0.250000X-0.225000X0.250000X-0.225000X0.250000X0.225000X0*%
%ADD11RoundRect,0.200000X0.275000X-0.200000X0.275000X0.200000X-0.275000X0.200000X-0.275000X-0.200000X0*%
%ADD12RoundRect,0.140000X-0.170000X0.140000X-0.170000X-0.140000X0.170000X-0.140000X0.170000X0.140000X0*%
%ADD13FreePoly0,0.000000*%
%ADD14R,1.000000X1.800000*%
%ADD15RoundRect,0.125000X0.125000X0.137500X-0.125000X0.137500X-0.125000X-0.137500X0.125000X-0.137500X0*%
%ADD16R,1.000000X2.300000*%
%ADD17R,2.300000X1.000000*%
%ADD18R,1.800000X1.100000*%
G04 APERTURE END LIST*
D10*
X112242000Y-95376000D03*
X112242000Y-96926000D03*
D11*
X124817000Y-108168500D03*
X124817000Y-106518500D03*
D12*
X110742000Y-95216000D03*
X110742000Y-96176000D03*
D13*
X133692000Y-79751000D03*
D14*
X126692000Y-79751000D03*
D15*
X129642000Y-108776000D03*
X128842000Y-108776000D03*
X128042000Y-108776000D03*
X127242000Y-108776000D03*
X127242000Y-106401000D03*
X128042000Y-106401000D03*
X128842000Y-106401000D03*
X129642000Y-106401000D03*
D16*
X112150000Y-92950000D03*
X113400000Y-92950000D03*
X114650000Y-92950000D03*
X115900000Y-92950000D03*
X117150000Y-92950000D03*
X118400000Y-92950000D03*
X119650000Y-92950000D03*
D17*
X121900000Y-90700000D03*
X121900000Y-89450000D03*
X121900000Y-88200000D03*
X121900000Y-86950000D03*
X121900000Y-85700000D03*
X121900000Y-84450000D03*
X121900000Y-83200000D03*
D16*
X119650000Y-80950000D03*
X118400000Y-80950000D03*
X117150000Y-80950000D03*
X115900000Y-80950000D03*
X114650000Y-80950000D03*
X113400000Y-80950000D03*
X112150000Y-80950000D03*
D17*
X109900000Y-83200000D03*
X109900000Y-84450000D03*
X109900000Y-85700000D03*
X109900000Y-86950000D03*
X109900000Y-88200000D03*
X109900000Y-89450000D03*
X109900000Y-90700000D03*
D11*
X123242000Y-108193500D03*
X123242000Y-106543500D03*
D12*
X126121000Y-103583500D03*
X126121000Y-104543500D03*
D18*
X97484000Y-79684000D03*
X103684000Y-79684000D03*
X97484000Y-83384000D03*
X103684000Y-83384000D03*
D12*
X124851000Y-103608500D03*
X124851000Y-104568500D03*
M02*
